<?xml version="1.0" encoding="utf-8"?>
<!-- Generator: Adobe Illustrator 27.5.0, SVG Export Plug-In . SVG Version: 6.00 Build 0)  -->
<svg version="1.1" xmlns="http://www.w3.org/2000/svg" xmlns:xlink="http://www.w3.org/1999/xlink" x="0px" y="0px"
	 viewBox="0 0 500 500" style="enable-background:new 0 0 500 500;" xml:space="preserve">
<g id="BACKGROUND">
	<rect style="fill-rule:evenodd;clip-rule:evenodd;fill:#FFFFFF;" width="500" height="500"/>
	<polygon style="fill-rule:evenodd;clip-rule:evenodd;fill:#E7EAF3;" points="70.497,101.785 70.497,387.768 435.228,372.226 
		440.408,123.544 	"/>
</g>
<g id="OBJECTS">
	<g>
		<path style="fill-rule:evenodd;clip-rule:evenodd;fill:#DADEE9;" d="M249.103,464.637c54.82,0,99.533-7.585,99.533-16.883
			s-44.713-16.882-99.533-16.882c-54.821,0-99.534,7.584-99.534,16.882S194.282,464.637,249.103,464.637z"/>
		<path style="fill-rule:evenodd;clip-rule:evenodd;fill:#DADEE9;" d="M352.001,466.999c9.111,0,16.542-1.932,16.542-4.301
			c0-2.369-7.431-4.3-16.542-4.3c-9.11,0-16.542,1.931-16.542,4.3C335.459,465.067,342.89,466.999,352.001,466.999z"/>
	</g>
	<g>
		<path style="fill-rule:evenodd;clip-rule:evenodd;fill:#6F89DB;" d="M243.513,247.759h119.471c2.37,0,4.292,1.921,4.292,4.291
			c0,2.37-1.922,4.292-4.292,4.292H243.513V247.759z"/>
		<path style="fill-rule:evenodd;clip-rule:evenodd;fill:#FFFFFF;" d="M270.319,178.559h81.507c1.991,0,3.307,1.628,2.925,3.619
			l-12.584,65.582h-88.745l12.585-65.582C266.388,180.186,268.328,178.559,270.319,178.559z"/>
		<path style="fill-rule:evenodd;clip-rule:evenodd;fill:#D3F499;" d="M332.038,247.759h-69.712l7.105-37.035
			c0.3-1.563,1.825-2.842,3.388-2.842h64.026c1.564,0,2.597,1.279,2.297,2.842L332.038,247.759z"/>
		<g>
			<path style="fill-rule:evenodd;clip-rule:evenodd;fill:#3A3C6C;" d="M278.3,185.61c3.688,0,6.303,2.988,5.842,6.676
				c-0.462,3.687-3.824,6.677-7.512,6.677c-3.687,0-6.303-2.99-5.842-6.677C271.25,188.598,274.613,185.61,278.3,185.61z"/>
			<path style="fill-rule:evenodd;clip-rule:evenodd;fill:#FFFFFF;" d="M280.639,197.739c-1.186,0.771-2.572,1.225-4.009,1.225
				c-2.022,0-3.721-0.899-4.769-2.319c1.058-2.017,3.499-3.188,5.72-2.654C279.461,194.439,280.631,195.975,280.639,197.739
				L280.639,197.739z M278.842,187.824c-1.507-0.361-3.173,0.531-3.724,1.992c-0.549,1.463,0.227,2.941,1.734,3.302
				c1.507,0.361,3.174-0.531,3.723-1.993C281.127,189.663,280.35,188.185,278.842,187.824z"/>
		</g>
		<g>
			<rect x="289.019" y="188.813" style="fill-rule:evenodd;clip-rule:evenodd;fill:#3A3C6C;" width="25.507" height="2.804"/>
			<rect x="288.184" y="192.802" style="fill-rule:evenodd;clip-rule:evenodd;fill:#3A3C6C;" width="11.316" height="2.804"/>
		</g>
		<path style="fill-rule:evenodd;clip-rule:evenodd;fill:#3A3C6C;" d="M362.665,155.019l-8.568,10.583l-0.92-0.748l8.567-10.584
			L362.665,155.019L362.665,155.019z M360.278,169.695l7.056-2.016l0.325,1.144l-7.055,2.016L360.278,169.695z"/>
	</g>
	<g>
		<g>
			<path style="fill-rule:evenodd;clip-rule:evenodd;fill:#3A3C6C;" d="M274.019,99.336l53.008-2.238
				c1.301-0.055,2.505,0.428,3.398,1.248c0.892,0.82,1.474,1.981,1.529,3.282l1.173,27.802c0.055,1.299-0.427,2.504-1.248,3.397
				c-0.819,0.892-1.979,1.474-3.281,1.529l-30.634,1.292l-7.73,8.412c-0.471,0.509-1.108,0.781-1.757,0.807
				c-0.649,0.027-1.31-0.192-1.824-0.664l-8.403-7.723l-2.659,0.113c-1.301,0.055-2.504-0.427-3.397-1.247
				c-0.892-0.82-1.474-1.981-1.529-3.283l-1.173-27.802c-0.055-1.3,0.428-2.505,1.248-3.398
				C271.556,99.972,272.717,99.391,274.019,99.336L274.019,99.336z M327.049,97.658l-53.009,2.237
				c-1.145,0.048-2.167,0.561-2.891,1.349c-0.723,0.787-1.148,1.85-1.101,2.997l1.173,27.802c0.048,1.145,0.561,2.168,1.349,2.891
				c0.788,0.724,1.85,1.15,2.997,1.101l2.89-0.122c2.834,2.602,5.693,5.371,8.582,7.887c0.4,0.362,0.912,0.531,1.416,0.51
				c0.507-0.021,1.006-0.235,1.373-0.636c2.514-2.887,5.281-5.74,7.879-8.573l30.869-1.302c1.145-0.049,2.167-0.561,2.891-1.35
				c0.723-0.786,1.148-1.849,1.101-2.996l-1.173-27.803c-0.048-1.145-0.561-2.167-1.349-2.891
				C329.258,98.033,328.195,97.609,327.049,97.658z"/>
			<g>
				<path style="fill-rule:evenodd;clip-rule:evenodd;fill:#3A3C6C;" d="M289.242,113.874c1.769-0.16,3.332,1.143,3.492,2.912
					c0.16,1.77-1.144,3.333-2.912,3.492c-1.768,0.16-3.333-1.143-3.492-2.912C286.17,115.597,287.474,114.034,289.242,113.874z"/>
				<path style="fill-rule:evenodd;clip-rule:evenodd;fill:#3A3C6C;" d="M300.998,112.754c1.769-0.159,3.333,1.144,3.493,2.913
					c0.16,1.768-1.144,3.333-2.912,3.492c-1.769,0.16-3.332-1.144-3.493-2.912C297.925,114.478,299.23,112.915,300.998,112.754z"/>
				<path style="fill-rule:evenodd;clip-rule:evenodd;fill:#3A3C6C;" d="M312.793,112.33c1.769-0.16,3.332,1.144,3.492,2.912
					c0.161,1.769-1.143,3.332-2.912,3.493c-1.768,0.16-3.332-1.144-3.492-2.912C309.721,114.054,311.025,112.491,312.793,112.33z"/>
			</g>
		</g>
		<g>
			<g>
				<path style="fill-rule:evenodd;clip-rule:evenodd;fill:#B0DE5D;" d="M375.26,301.396c4.92,0.571,8.445,5.021,7.875,9.941
					c-0.57,4.919-5.02,8.446-9.94,7.875c-4.92-0.569-8.447-5.02-7.876-9.94C365.89,304.352,370.341,300.827,375.26,301.396z"/>
				<polygon style="fill-rule:evenodd;clip-rule:evenodd;fill:#FFFFFF;" points="371.257,307.955 373.29,310.547 379.795,306.822 
					381.286,309.446 372.527,314.463 368.886,309.821 				"/>
			</g>
			<path style="fill-rule:evenodd;clip-rule:evenodd;fill:#6F89DB;" d="M372.668,323.765c4.919,0.571,8.445,5.021,7.875,9.94
				c-0.571,4.92-5.021,8.446-9.94,7.875c-4.92-0.569-8.446-5.02-7.875-9.94C363.297,326.722,367.748,323.195,372.668,323.765z"/>
			<path style="fill-rule:evenodd;clip-rule:evenodd;fill:#3A3C6C;" d="M370.074,346.134c4.92,0.57,8.446,5.02,7.875,9.94
				c-0.57,4.92-5.021,8.446-9.939,7.875c-4.92-0.57-8.446-5.021-7.876-9.94C360.705,349.091,365.156,345.564,370.074,346.134z"/>
			<g>
				
					<rect x="399.02" y="300.966" transform="matrix(0.1151 -0.9934 0.9934 0.1151 45.1608 672.7875)" style="fill-rule:evenodd;clip-rule:evenodd;fill:#232446;" width="2.381" height="20.159"/>
				
					<rect x="391.569" y="311.622" transform="matrix(0.115 -0.9934 0.9934 0.115 34.9426 668.6691)" style="fill-rule:evenodd;clip-rule:evenodd;fill:#232446;" width="2.381" height="6.203"/>
			</g>
			<g>
				
					<rect x="396.564" y="322.163" transform="matrix(0.1151 -0.9934 0.9934 0.1151 21.9337 689.1058)" style="fill-rule:evenodd;clip-rule:evenodd;fill:#232446;" width="2.381" height="20.158"/>
				
					<rect x="392.742" y="329.585" transform="matrix(0.1152 -0.9933 0.9933 0.1152 14.4481 688.9009)" style="fill-rule:evenodd;clip-rule:evenodd;fill:#232446;" width="2.381" height="13.511"/>
			</g>
		</g>
		<g>
			<g>
				<path style="fill-rule:evenodd;clip-rule:evenodd;fill:#3A3C6C;" d="M96.172,156.044c4.858,0,8.82-3.962,8.82-8.82
					c0-4.858-3.962-8.821-8.82-8.821c-4.857,0-8.821,3.963-8.821,8.821C87.351,152.082,91.315,156.044,96.172,156.044z"/>
				<path style="fill-rule:evenodd;clip-rule:evenodd;fill:#FFFFFF;" d="M96.171,141.211c2.177,0,3.943,1.765,3.943,3.942
					c0,2.178-1.765,3.943-3.943,3.943c-2.177,0-3.942-1.765-3.942-3.943C92.229,142.976,93.994,141.211,96.171,141.211
					L96.171,141.211z M102.035,153.814c-1.559,1.387-3.612,2.231-5.863,2.231c-2.251,0-4.304-0.844-5.863-2.231
					c1.038-2.196,3.273-3.716,5.863-3.716C98.761,150.098,100.996,151.618,102.035,153.814z"/>
				<g>
					<rect x="107.821" y="141.633" style="fill-rule:evenodd;clip-rule:evenodd;fill:#232446;" width="20.158" height="2.381"/>
					<rect x="107.821" y="146.144" style="fill-rule:evenodd;clip-rule:evenodd;fill:#232446;" width="6.203" height="2.381"/>
				</g>
			</g>
			<g>
				<path style="fill-rule:evenodd;clip-rule:evenodd;fill:#3A3C6C;" d="M96.172,182.71c4.858,0,8.82-3.962,8.82-8.82
					c0-4.858-3.962-8.822-8.82-8.822c-4.857,0-8.821,3.964-8.821,8.822C87.351,178.747,91.315,182.71,96.172,182.71z"/>
				<path style="fill-rule:evenodd;clip-rule:evenodd;fill:#FFFFFF;" d="M96.171,167.876c2.177,0,3.943,1.765,3.943,3.942
					c0,2.178-1.765,3.943-3.943,3.943c-2.177,0-3.942-1.765-3.942-3.943C92.229,169.641,93.994,167.876,96.171,167.876
					L96.171,167.876z M102.035,180.48c-1.559,1.387-3.612,2.231-5.863,2.231c-2.251,0-4.304-0.844-5.863-2.231
					c1.038-2.196,3.273-3.716,5.863-3.716C98.761,176.763,100.996,178.283,102.035,180.48z"/>
				<g>
					<rect x="107.821" y="168.298" style="fill-rule:evenodd;clip-rule:evenodd;fill:#232446;" width="9.386" height="2.381"/>
					<rect x="107.821" y="172.809" style="fill-rule:evenodd;clip-rule:evenodd;fill:#232446;" width="13.258" height="2.381"/>
				</g>
			</g>
			<path style="fill-rule:evenodd;clip-rule:evenodd;fill:#B0DE5D;" d="M102.056,144.495c2.116,0,3.843-1.726,3.843-3.843
				c0-2.116-1.727-3.843-3.843-3.843c-2.116,0-3.843,1.727-3.843,3.843C98.213,142.769,99.939,144.495,102.056,144.495z"/>
		</g>
		<g>
			<circle style="fill-rule:evenodd;clip-rule:evenodd;fill:#3A3C6C;" cx="326.013" cy="274.645" r="2.268"/>
			<path style="fill-rule:evenodd;clip-rule:evenodd;fill:#3A3C6C;" d="M391.969,215.934c1.214,0,2.204-0.99,2.204-2.204
				c0-1.214-0.99-2.205-2.204-2.205c-1.214,0-2.203,0.991-2.203,2.205C389.765,214.944,390.754,215.934,391.969,215.934z"/>
			<circle style="fill-rule:evenodd;clip-rule:evenodd;fill:#3A3C6C;" cx="252.686" cy="166.545" r="1.512"/>
			<path style="fill-rule:evenodd;clip-rule:evenodd;fill:#3A3C6C;" d="M162.476,356.54c0.834,0,1.512-0.679,1.512-1.512
				c0-0.833-0.678-1.512-1.512-1.512c-0.833,0-1.513,0.678-1.513,1.512C160.963,355.861,161.643,356.54,162.476,356.54z"/>
		</g>
	</g>
	<g>
		<g>
			<g>
				<g>
					<path style="fill-rule:evenodd;clip-rule:evenodd;fill:#232446;" d="M153.359,277.482l-4.637,3.523
						c0,0-14.658,53.397,36.149,56.01l17.835,92.957h26.713l-1.484-117.985l-15.179,2.744L192.69,280.08L153.359,277.482z"/>
					<path style="fill-rule:evenodd;clip-rule:evenodd;fill:#232446;" d="M226.137,429.972c1.954,2.572,5.644,8.29,6.387,15.582
						H202.1c0,0-1.271-8.185,1.849-15.582H226.137z"/>
				</g>
				<g>
					<path style="fill-rule:evenodd;clip-rule:evenodd;fill:#3A3C6C;" d="M242.961,281.005l70.368,16.148
						c4.431,1.017,12.615,11.873,8.904,23.004c-3.71,11.13-19.292,110.564-19.292,110.564h-28.94l0.742-98.691
						c-31.994,2.311-100.631,8.918-99.889-44.189C211.755,293.163,242.961,281.005,242.961,281.005z"/>
					<path style="fill-rule:evenodd;clip-rule:evenodd;fill:#232446;" d="M242.961,281.005c0.408,7.561-8.384,15.651-19.316,22.419
						c1.54,1.847,3.522,3.868,5.165,4.374c3.26,1.004,67.314,11.051,67.499,11.08l0.346,0.054l-0.178,0.301
						c-0.008,0.013-2.855,4.762,0.101,5.442l0.204,0.048l-10.1,99.741l-0.472-0.047l10.059-99.333
						c-2.792-0.839-0.967-4.68-0.369-5.792c-4.939-0.775-64.071-10.069-67.229-11.041c-1.753-0.54-3.838-2.669-5.43-4.58
						c-13.097,8.031-29.11,14.151-36.076,15.223c-7.724-6.887-12.509-16.826-12.31-31.055
						C211.755,293.163,242.961,281.005,242.961,281.005z"/>
					<path style="fill-rule:evenodd;clip-rule:evenodd;fill:#3A3C6C;" d="M313.776,445.644l0.001,0.004h-40.626
						c0,0-1.824-5.181,0.85-14.927h28.94c0,0,19.939,6.576,20.126,14.923H313.776z"/>
				</g>
			</g>
			<g>
				<g>
					<path style="fill-rule:evenodd;clip-rule:evenodd;fill:#232446;" d="M231.418,95.517c0,0,22.834-18.332,7.792-31.537
						c-24.303-21.334-57.324-0.556-57.324-0.556c-4.981-7.359-15.588-1.79-6.554,3.518c-7.904-4.677-12.532,1.019-6.313,2.895
						c-15.693,7.828,1.866,44.036,9.383,63.713l19.996-0.003l1.575-18.182L231.418,95.517z"/>
					<path style="fill-rule:evenodd;clip-rule:evenodd;fill:#3A3C6C;" d="M209.594,55.853c7.828-0.475,14.175,0.755,14.175,2.746
						c0,1.992-6.346,3.992-14.175,4.466c-7.827,0.476-14.173-0.755-14.173-2.746C195.421,58.327,201.766,56.328,209.594,55.853
						L209.594,55.853z M192.018,64.241c2.087,0,3.78,0.776,3.78,1.732c0,0.956-1.693,1.732-3.78,1.732
						c-2.087,0-3.78-0.776-3.78-1.732C188.239,65.017,189.931,64.241,192.018,64.241z"/>
				</g>
				<g>
					<path style="fill-rule:evenodd;clip-rule:evenodd;fill:#EBB39D;" d="M232.623,88.652c0,0,4.081,37.473-7.791,51.573
						c0,0-8.731,1.595-15.223,0.853l0.139,17.531l-31.942-0.759c0,0,0.695-12.509,0.597-24.3v0.001l19.996-0.003l1.575-18.182
						c0,0-9.276,3.154-10.945-6.493c-1.67-9.646,7.234-16.697,9.832-11.131l2.411,5.009l4.731-0.463l0.742-9.74
						C206.744,92.548,222.882,92.734,232.623,88.652z"/>
					<path style="fill-rule:evenodd;clip-rule:evenodd;fill:#DC8C8C;" d="M224.831,140.225c0,0-8.731,1.595-15.223,0.853
						l0.139,17.531l-31.942-0.759c0,0,0.695-12.509,0.597-24.3v0.001l19.996-0.003C209.166,142.637,224.831,140.225,224.831,140.225
						z"/>
					<path style="fill-rule:evenodd;clip-rule:evenodd;fill:#DC8C8C;" d="M232.623,88.652c0,0,0.075,0.685,0.173,1.894
						c-4.191,2.318-12.253,4.984-24.059,3.12l-2.713,8.323l0.719-9.441C206.744,92.548,222.882,92.734,232.623,88.652z"/>
					<path style="fill-rule:evenodd;clip-rule:evenodd;fill:#DC8C8C;" d="M199.705,115.446c-1.529,0.426-9.176,2.099-10.677-6.574
						c-0.389-2.247-0.204-4.351,0.341-6.19c3.54-6.745,8.052-0.205,8.052-0.205c-7.437,1.463-1.61,10.992,2.876,8.998l-0.325,3.89
						L199.705,115.446z"/>
					<path style="fill-rule:evenodd;clip-rule:evenodd;fill:#232446;" d="M238.838,103.152l-1.023,0.172l-0.008,0.381l-4.509-0.348
						v0.001l-2.296-0.177l-29.442-2.267l-0.035,0.473l30.437,2.344l0.475,0.036l0,0l5.361,0.413l-0.006,0.348l1.006,0.197
						l-0.01,0.167c-0.165,2.524-0.697,4.808-1.423,6.458c-0.699,1.586-1.557,2.567-2.41,2.567l-0.07-0.001
						c-0.728-0.048-1.363-0.833-1.829-2.105l-0.015-0.042c-0.021,0.345-0.045,0.69-0.07,1.036c0.5,0.96,1.14,1.536,1.881,1.585
						l0.102,0.004c1.059,0,2.07-1.09,2.844-2.851c0.747-1.697,1.293-4.039,1.461-6.621c0.036-0.557,0.054-1.097,0.054-1.619
						c0-2.161-0.295-4.074-0.804-5.462c-0.531-1.454-1.309-2.356-2.243-2.418l-0.102-0.004c-1.06,0-2.07,1.09-2.844,2.851
						c-0.031,0.072-0.062,0.144-0.093,0.218c0.012,0.422,0.024,0.853,0.033,1.293c0.151-0.473,0.318-0.915,0.496-1.318
						c0.697-1.586,1.555-2.568,2.408-2.568l0.07,0.003c0.728,0.048,1.363,0.833,1.828,2.105
						C238.543,99.309,238.826,101.106,238.838,103.152z"/>
				</g>
				<polygon style="fill-rule:evenodd;clip-rule:evenodd;fill:#232446;" points="176.697,135.304 196.036,134.548 196.053,135.023 
					176.713,135.778 				"/>
			</g>
			<g>
				<path style="fill-rule:evenodd;clip-rule:evenodd;fill:#F1F2FF;" d="M155.623,231.136c0,0,18.711-67.618-5.473-70.806
					c-23.613-3.111-26.375,74.24-16.976,92.085c9.402,17.844,67.768-4.835,67.768-4.835s3.735-9.361-5.8-15.923L155.623,231.136z"/>
				<path style="fill-rule:evenodd;clip-rule:evenodd;fill:#FFFFFF;" d="M210.429,150.37c6.966,1.442,25.321,5.957,33.645,14.875
					c10.389,11.131-4.824,80.884-1.113,115.759c-4.081,8.905-57.281,26.576-94.239,0c0,0-10.573-62.703-5.379-114.646
					c0,0,22.733-14.109,34.462-16.886l0.298,0.003l0.253-7.46l31.965,0.551L210.429,150.37z"/>
				<path style="fill-rule:evenodd;clip-rule:evenodd;fill:#F1F2FF;" d="M247.419,195.688c-1.345,24.391-6.042,57.523-4.867,80.027
					c-34.712-13.04-23.854-97.032-23.854-97.032l22.476,13.432C241.174,192.114,243.6,193.497,247.419,195.688z"/>
				<path style="fill-rule:evenodd;clip-rule:evenodd;fill:#FFFFFF;" d="M256.339,234.114c0,0,2.749-75.885-22.658-74.12
					c-29.321,2.036-12.482,87.334,2.376,100.972c14.859,13.639,75.835-14.665,75.835-14.665s3.061-11.285-8.126-14.253
					L256.339,234.114z"/>
				<path style="fill-rule:evenodd;clip-rule:evenodd;fill:#EBB39D;" d="M307.081,233.372c4.555-0.295,11.623-0.646,13.045-0.09
					c2.133,0.836,8.348,14.477,8.348,14.477h-19.844c2.076-0.908,3.262-1.459,3.262-1.459S314.289,237.461,307.081,233.372z"/>
			</g>
		</g>
		<g>
			<path style="fill-rule:evenodd;clip-rule:evenodd;fill:#6F89DB;" d="M275.007,342.176H112.832c-3.168,0-5.758-2.59-5.758-5.758
				v-0.001c0-3.168,2.59-5.758,5.758-5.758h162.175c3.167,0,5.756,2.59,5.756,5.758v0.001
				C280.763,339.586,278.173,342.176,275.007,342.176z"/>
			<path style="fill-rule:evenodd;clip-rule:evenodd;fill:#4D5BB3;" d="M275.006,342.176h-60.576c-3.168,0-5.758-2.59-5.758-5.758
				v-0.001c0-3.168,2.59-5.758,5.758-5.758h60.576c3.169,0,5.757,2.59,5.757,5.758v0.001
				C280.763,339.586,278.175,342.176,275.006,342.176z"/>
		</g>
	</g>
</g>
</svg>
